# xmcd CD database file
#
# Track frame offsets:
#	150
#	25925
#	38748
#	78749
#	111002
#	148433
#	187006
#
# Disc length: 3549 seconds
#
# Revision: 0
# Processed by: cddbd v1.5.2PL0 Copyright (c) Steve Scherf et al.
# Submitted via: CDex 1.70beta2
#
DISCID=610ddb07
DTITLE=the Darcy Hepner Jazz Orchestra - Jazz at the Corktown, 05-07-2008
DYEAR=2008
DGENRE=Jazz
TTITLE0=Lowdown
TTITLE1=It Always Happens Every Time
TTITLE2=Rhoda Map
TTITLE3=The Interloper
TTITLE4=Kids are Pretty People
TTITLE5=Walkin' About
TTITLE6=Fingers
EXTD=YEAR: 2008
EXTT0=
EXTT1=
EXTT2=
EXTT3=
EXTT4=
EXTT5=
EXTT6=
PLAYORDER=
